<?xml version="1.0" standalone="no"?>
<svg width="1210px" height="1130px" xmlns:xlink="http://www.w3.org/1999/xlink" id="wave" style="transform:rotate(47deg); transition: 0.3s" viewBox="0 0 1440 490" version="1.1" xmlns="http://www.w3.org/2000/svg"><path style="transform:translate(0, 0px); opacity:1" fill="white" d="M0,343L30,359.3C60,376,120,408,180,375.7C240,343,300,245,360,245C420,245,480,343,540,326.7C600,310,660,180,720,179.7C780,180,840,310,900,367.5C960,425,1020,408,1080,359.3C1140,310,1200,229,1260,236.8C1320,245,1380,343,1440,343C1500,343,1560,245,1620,187.8C1680,131,1740,114,1800,155.2C1860,196,1920,294,1980,334.8C2040,376,2100,359,2160,294C2220,229,2280,114,2340,114.3C2400,114,2460,229,2520,294C2580,359,2640,376,2700,359.3C2760,343,2820,294,2880,302.2C2940,310,3000,376,3060,359.3C3120,343,3180,245,3240,212.3C3300,180,3360,212,3420,187.8C3480,163,3540,82,3600,65.3C3660,49,3720,98,3780,171.5C3840,245,3900,343,3960,318.5C4020,294,4080,147,4140,106.2C4200,65,4260,131,4290,163.3L4320,196L4320,490L4290,490C4260,490,4200,490,4140,490C4080,490,4020,490,3960,490C3900,490,3840,490,3780,490C3720,490,3660,490,3600,490C3540,490,3480,490,3420,490C3360,490,3300,490,3240,490C3180,490,3120,490,3060,490C3000,490,2940,490,2880,490C2820,490,2760,490,2700,490C2640,490,2580,490,2520,490C2460,490,2400,490,2340,490C2280,490,2220,490,2160,490C2100,490,2040,490,1980,490C1920,490,1860,490,1800,490C1740,490,1680,490,1620,490C1560,490,1500,490,1440,490C1380,490,1320,490,1260,490C1200,490,1140,490,1080,490C1020,490,960,490,900,490C840,490,780,490,720,490C660,490,600,490,540,490C480,490,420,490,360,490C300,490,240,490,180,490C120,490,60,490,30,490L0,490Z"/></svg>